<?xml version="1.0" standalone="no"?>
<!DOCTYPE svg PUBLIC "-//W3C//DTD SVG 20010904//EN"
 "http://www.w3.org/TR/2001/REC-SVG-20010904/DTD/svg10.dtd">
<svg version="1.0" xmlns="http://www.w3.org/2000/svg"
 width="278.000000pt" height="278.000000pt" viewBox="0 0 278.000000 278.000000"
 preserveAspectRatio="xMidYMid meet">
<metadata>
Created by potrace 1.11, written by Peter Selinger 2001-2013
</metadata>
<g transform="translate(0.000000,278.000000) scale(0.100000,-0.100000)"
fill="#000000" stroke="none">
<path d="M774 2767 c-60 -20 -100 -55 -137 -122 l-22 -40 0 -1302 0 -1303 773
0 c610 0 772 3 773 13 0 6 1 424 2 927 1 503 5 920 9 925 8 13 7 235 -2 235
-4 0 -6 107 -6 238 1 267 -6 307 -65 368 -67 70 -39 67 -700 69 -355 1 -607
-3 -625 -8z"/>
</g>
</svg>
